<svg xmlns="http://www.w3.org/2000/svg" viewBox="0 0 600 600" width="600" height="600" preserveAspectRatio="xMidYMid slice" role="img" aria-label="Ilustración de jugo de mora">
  <defs>
    <linearGradient id="jmBg" x1="0" y1="0" x2="1" y2="1">
      <stop offset="0" stop-color="#F7EDFA"/>
      <stop offset="1" stop-color="#E4D2EC"/>
    </linearGradient>
    <linearGradient id="jmLiq" x1="0" y1="0" x2="0" y2="1">
      <stop offset="0" stop-color="#7B2D7E"/>
      <stop offset="1" stop-color="#3E1245"/>
    </linearGradient>
    <clipPath id="jmGlass">
      <path d="M225 165H375L357 470a57 45 0 0 1-114 0Z"/>
    </clipPath>
  </defs>

  <rect width="600" height="600" fill="url(#jmBg)"/>
  <circle cx="470" cy="110" r="110" fill="#7B2D7E" opacity=".18"/>
  <circle cx="110" cy="500" r="90" fill="#C9A538" opacity=".16"/>
  <rect y="470" width="600" height="130" fill="#8B5E34" opacity=".3"/>

  <ellipse cx="300" cy="505" rx="150" ry="32" fill="#000" opacity=".14"/>

  <!-- Caña -->
  <rect x="286" y="70" width="24" height="230" rx="12" fill="#C9A538" transform="rotate(14 300 185)"/>

  <!-- Vaso -->
  <path d="M225 165H375L357 470a57 45 0 0 1-114 0Z" fill="#FFFFFF" opacity=".55"/>
  <g clip-path="url(#jmGlass)">
    <rect x="200" y="215" width="220" height="320" fill="url(#jmLiq)"/>
    <circle cx="268" cy="300" r="26" fill="#9B43A0" opacity=".55"/>
    <circle cx="330" cy="380" r="30" fill="#9B43A0" opacity=".45"/>
    <circle cx="262" cy="420" r="22" fill="#9B43A0" opacity=".5"/>
    <rect x="236" y="180" width="16" height="300" fill="#FFFFFF" opacity=".35"/>
    <rect x="336" y="180" width="9" height="300" fill="#FFFFFF" opacity=".22"/>
  </g>
  <path d="M225 165H375L357 470a57 45 0 0 1-114 0Z" fill="none" stroke="#FFFFFF" stroke-width="9" opacity=".85"/>
  <ellipse cx="300" cy="165" rx="75" ry="19" fill="#FFFFFF" opacity=".8"/>
  <ellipse cx="300" cy="165" rx="60" ry="14" fill="#5E2163"/>

  <!-- Moras -->
  <g>
    <circle cx="392" cy="152" r="30" fill="#4A1E4F"/>
    <circle cx="424" cy="176" r="24" fill="#5E2563"/>
    <g fill="#7B2D7E">
      <circle cx="384" cy="144" r="7"/><circle cx="399" cy="146" r="7"/><circle cx="392" cy="159" r="7"/>
      <circle cx="416" cy="170" r="6"/><circle cx="430" cy="174" r="6"/><circle cx="424" cy="186" r="6"/>
    </g>
    <path d="M392 122c-14-12-32-12-44-2 12 12 30 14 44 2z" fill="#5C8C4A"/>
  </g>

  <!-- Azúcar/light -->
  <g fill="#FFFFFF" opacity=".5">
    <rect x="270" y="250" width="18" height="18" rx="5" transform="rotate(12 279 259)"/>
    <rect x="320" y="330" width="16" height="16" rx="5" transform="rotate(-14 328 338)"/>
  </g>
</svg>
